<?xml version="1.0" encoding="UTF-8"?>
<!-- Created with Inkscape (http://www.inkscape.org/) -->
<svg width="8.4667mm" height="7.4083mm" version="1.1" viewBox="0 0 8.4667 7.4083" xml:space="preserve" xmlns="http://www.w3.org/2000/svg" xmlns:cc="http://creativecommons.org/ns#" xmlns:dc="http://purl.org/dc/elements/1.1/" xmlns:rdf="http://www.w3.org/1999/02/22-rdf-syntax-ns#"><title>(c) ByeMC 2023</title><path d="m1.0583 0h0.52917v0.52916h-0.52917m1.5875-0.52916h0.52917v0.52916h-0.52917m0.52917-0.52916h0.52917v0.52916h-0.52917m-1.5875 0h0.52917v0.52918h-0.52917m0.52917-0.52918h0.52917v0.52918h-0.52917m-1.5875 0h0.52917v0.52916h-0.52917m0.52917-0.52916h0.52917v0.52916h-0.52917m0.52917-0.52916h0.52917v0.52916h-0.52917m0.52917-0.52916h0.52917v0.52916h-0.52917 0.52917v0.52916h-0.52917m0.52917-0.52916h0.52917v0.52916h-0.52917m0.52917-0.52916h0.52917v0.52916h-0.52917m0.52917-0.52916h0.52917v0.52916h-0.52917m0.52917-0.52916h0.52917v0.52916h-0.52917m0.52917-0.52916h0.52917v0.52916h-0.52917m0.52917-0.52916h0.52917v0.52916h-0.52917m0.52917-0.52916h0.52917v0.52916h-0.52917m0.52917-0.52916h0.52917v0.52916h-0.52917m-4.7625 0h0.52917v0.52918h-0.52917m0.52917-0.52918h0.52917v0.52918h-0.52917m1.0583-0.52918h0.52917v0.52918h-0.52917m0.52917-0.52918h0.52917v0.52918h-0.52917m0.52917-0.52918h0.52917v0.52918h-0.52917m0.52917-0.52918h0.52917v0.52918h-0.52917m1.0583-0.52918h0.52917v0.52918h-0.52917m0.52917-0.52918h0.52917v0.52918h-0.52917m-4.7625 0h0.52917v0.52916h-0.52917m2.1167-0.52916h0.52917v0.52916h-0.52917m0.52917-0.52916h0.52917v0.52916h-0.52917m1.0583-0.52916h0.52917v0.52916h-0.52917m1.0583-0.52916h0.52917v0.52916h-0.52917m-4.7625 0h0.52917v0.52916h-0.52917m2.1167-0.52916h0.52917v0.52916h-0.52917m0.52917-0.52916h0.52917v0.52916h-0.52917m1.0583-0.52916h0.52917v0.52916h-0.52917m1.0583-0.52916h0.52917v0.52916h-0.52917m-4.7625 0h0.52917v0.52918h-0.52917m2.1167-0.52918h0.52917v0.52918h-0.52917m0.52917-0.52918h0.52917v0.52918h-0.52917m1.0583-0.52918h0.52917v0.52918h-0.52917m1.0583-0.52918h0.52917v0.52918h-0.52917m-4.7625 0h0.52917v0.52916h-0.52917m0.52917-0.52916h0.52917v0.52916h-0.52917m0.52917-0.52916h0.52917v0.52916h-0.52917m0.52917-0.52916h0.52917v0.52916h-0.52917m0.52917-0.52916h0.52917v0.52916h-0.52917m0.52917-0.52916h0.52917v0.52916h-0.52917m0.52917-0.52916h0.52917v0.52916h-0.52917m0.52917-0.52916h0.52917v0.52916h-0.52917m0.52917-0.52916h0.52917v0.52916h-0.52917m0.52917-0.52916h0.52917v0.52916h-0.52917m-3.7042-1.5875h0.52917v0.52916h-0.52917 0.52917v0.52918h-0.52917m0-1.5875h0.52917v0.52916h-0.52917m0-2.1167h0.52917v0.52916h-0.52917m0.52917-0.52916h0.52917v0.52916h-0.52917m0.52917-0.52916h0.52917v0.52916h-0.52917m0.52917-0.52916h0.52917v0.52916h-0.52917m0.52917-0.52916h0.52917v0.52916h-0.52917m0.52917-0.52916h0.52917v0.52916h-0.52917m0.52917-0.52916h0.52917v0.52916h-0.52917m0.52917-0.52916h0.52917v0.52916h-0.52917m0.52917-0.52916h0.52917v0.52916h-0.52917m0.52917-0.52916h0.52917v0.52916h-0.52917m-7.4083 0h0.52917v0.52916h-0.52917m0.52917-0.52916h0.52917v0.52916h-0.52917m0.52917-0.52916h0.52917v0.52916h-0.52917m0.52917-0.52916h0.52917v0.52916h-0.52917m5.2917-0.52916h0.52917v0.52916h-0.52917m0.52917-0.52916h0.52917v0.52916h-0.52917m0.52917-0.52916h0.52916v0.52916h-0.52916m-7.9375 0h0.52917v0.52918h-0.52917m0.52917-0.52918h0.52917v0.52918h-0.52917m0.52917-0.52918h0.52917v0.52918h-0.52917m5.8208-0.52918h0.52917v0.52918h-0.52917m0.52917-0.52918h0.52917v0.52918h-0.52917m0.52917-0.52918h0.52916v0.52918h-0.52916m-7.9375 0h0.52917v0.52916h-0.52917m0.52917-0.52916h0.52917v0.52916h-0.52917m0.52917-0.52916h0.52917v0.52916h-0.52917m5.8208-0.52916h0.52917v0.52916h-0.52917m0.52917-0.52916h0.52917v0.52916h-0.52917m0.52917-0.52916h0.52916v0.52916h-0.52916m-7.9375 0h0.52917v0.52916h-0.52917m0.52917-0.52916h0.52917v0.52916h-0.52917m0.52917-0.52916h0.52917v0.52916h-0.52917m5.8208-0.52916h0.52917v0.52916h-0.52917m0.52917-0.52916h0.52917v0.52916h-0.52917m0.52917-0.52916h0.52916v0.52916h-0.52916m-7.9375 0h0.52917v0.52918h-0.52917m0.52917-0.52918h0.52917v0.52918h-0.52917m0.52917-0.52918h0.52917v0.52918h-0.52917m5.8208-0.52918h0.52917v0.52918h-0.52917m0.52917-0.52918h0.52917v0.52918h-0.52917m0.52917-0.52918h0.52916v0.52918h-0.52916m-7.9375 0h0.52917v0.52916h-0.52917m0.52917-0.52916h0.52917v0.52916h-0.52917m0.52917-0.52916h0.52917v0.52916h-0.52917m5.8208-0.52916h0.52917v0.52916h-0.52917m0.52917-0.52916h0.52917v0.52916h-0.52917m0.52917-0.52916h0.52916v0.52916h-0.52916m-7.9375 0h0.52917v0.52916h-0.52917m0.52917-0.52916h0.52917v0.52916h-0.52917m0.52917-0.52916h0.52917v0.52916h-0.52917m0.52917-0.52916h0.52917v0.52916h-0.52917m0.52917-0.52916h0.52917v0.52916h-0.52917m1.0583-0.52916h0.52917v0.52916h-0.52917m0.52917-0.52916h0.52917v0.52916h-0.52917m0.52917-0.52916h0.52917v0.52916h-0.52917m0.52917-0.52916h0.52917v0.52916h-0.52917m1.0583-0.52916h0.52917v0.52916h-0.52917m-3.7042 0h0.52917v0.52918h-0.52917m1.0583-0.52918h0.52917v0.52918h-0.52917m0.52917-0.52918h0.52917v0.52918h-0.52917m2.1167-0.52918h0.52917v0.52918h-0.52917m-3.175 0h0.52917v0.52916h-0.52917m2.6458-0.52916h0.52917v0.52916h-0.52917m0.52917-0.52916h0.52917v0.52916h-0.52917m0.52917-1.5875h0.52917v0.52916h-0.52917m0.52917-0.52916h0.52917v0.52916h-0.52917m0.52917-0.52916h0.52917v0.52916h-0.52917m0.52917-0.52916h0.52916v0.52916h-0.52916m-7.9375 0h0.52917v0.52918h-0.52917m0.52917-0.52918h0.52917v0.52918h-0.52917m0.52917-0.52918h0.52917v0.52918h-0.52917m0.52917-0.52918h0.52917v0.52918h-0.52917m2.6458-0.52918h0.52917v0.52918h-0.52917m0.52917-0.52918h0.52917v0.52918h-0.52917m1.5875-0.52918h0.52917v0.52918h-0.52917m0.52917-0.52918h0.52917v0.52918h-0.52917m0.52917-0.52918h0.52917v0.52918h-0.52917m0.52917-0.52918h0.52916v0.52918h-0.52916m-7.9375 0h0.52917v0.52916h-0.52917m0.52917-0.52916h0.52917v0.52916h-0.52917m0.52917-0.52916h0.52917v0.52916h-0.52917m0.52917-0.52916h0.52917v0.52916h-0.52917m0.52917-0.52916h0.52917v0.52916h-0.52917m4.2333-0.52916h0.52917v0.52916h-0.52917m0.52917-0.52916h0.52917v0.52916h-0.52917m0.52917-0.52916h0.52917v0.52916h-0.52917m0.52917-0.52916h0.52916v0.52916h-0.52916m-7.9375 0h0.52917v0.52916h-0.52917m0.52917-0.52916h0.52917v0.52916h-0.52917m0.52917-0.52916h0.52917v0.52916h-0.52917m0.52917-0.52916h0.52917v0.52916h-0.52917m0.52917-0.52916h0.52917v0.52916h-0.52917m0.52917-0.52916h0.52917v0.52916h-0.52917m0.52917-0.52916h0.52917v0.52916h-0.52917m0.52917-0.52916h0.52917v0.52916h-0.52917m0.52917-0.52916h0.52917v0.52916h-0.52917m0.52917-0.52916h0.52917v0.52916h-0.52917m0.52917-0.52916h0.52917v0.52916h-0.52917m0.52917-0.52916h0.52917v0.52916h-0.52917m0.52917-0.52916h0.52917v0.52916h-0.52917m0.52917-0.52916h0.52917v0.52916h-0.52917m0.52917-0.52916h0.52917v0.52916h-0.52917m0.52917-0.52916h0.52916v0.52916h-0.52916m-7.4083 0h0.52917v0.52918h-0.52917m0.52917-0.52918h0.52917v0.52918h-0.52917m0.52917-0.52918h0.52917v0.52918h-0.52917m0.52917-0.52918h0.52917v0.52918h-0.52917m0.52917-0.52918h0.52917v0.52918h-0.52917m0.52917-0.52918h0.52917v0.52918h-0.52917m0.52917-0.52918h0.52917v0.52918h-0.52917m0.52917-0.52918h0.52917v0.52918h-0.52917m0.52917-0.52918h0.52917v0.52918h-0.52917m0.52917-0.52918h0.52917v0.52918h-0.52917m0.52917-0.52918h0.52917v0.52918h-0.52917m0.52917-0.52918h0.52917v0.52918h-0.52917m0.52917-0.52918h0.52917v0.52918h-0.52917m0.52917-0.52918h0.52917v0.52918h-0.52917" stroke-width=".52917"/><style>@media (prefers-color-scheme:dark){:root{filter:invert(100%)}}</style></svg>